<?xml version="1.0" encoding="UTF-8" standalone="no"?>
<svg viewBox="0 0 554 51" version="1.1" xmlns="http://www.w3.org/2000/svg" xmlns:xlink="http://www.w3.org/1999/xlink" xmlns:sketch="http://www.bohemiancoding.com/sketch/ns">
    <!-- Generator: Sketch 3.4.4 (17249) - http://www.bohemiancoding.com/sketch -->
    <title>logo</title>
    <desc>Created with Sketch.</desc>
    <defs></defs>
    <g id="Page-1" stroke="none" stroke-width="1" fill="none" fill-rule="evenodd" sketch:type="MSPage">
        <g id="logo" sketch:type="MSLayerGroup" transform="translate(0.000000, -1.000000)" fill="#282324">
            <path d="M41.3601905,37.7561905 C38.7947381,46.5895238 31.9577381,52.0030952 22.5540238,52.0030952 C16.4981429,52.0030952 11.2978333,49.7947619 6.95435714,45.3780952 C2.68028571,40.9614286 0.542619048,34.6922857 0.542619048,26.5 C0.542619048,18.166381 3.1787381,11.2549286 7.38088095,7.26604762 C11.5830238,3.2052381 16.854,0.996904762 22.5540238,0.996904762 C31.9577381,0.996904762 38.7947381,6.41047619 41.3601905,15.2450714 L36.7277381,16.5990952 C34.807119,9.47438095 29.9626667,5.41483333 22.5540238,5.41483333 C17.4256429,5.41483333 13.2929048,7.26604762 10.1608571,10.971 C7.0225,14.6746905 5.4577381,19.875 5.4577381,26.5 C5.4577381,33.1262619 7.0225,38.3265714 10.1608571,42.0302619 C13.2929048,45.7352143 17.4256429,47.5851667 22.5540238,47.5851667 C29.9626667,47.5851667 34.807119,43.526881 36.7277381,36.4021667 L41.3601905,37.7561905" id="Fill-1" sketch:type="MSShapeGroup"></path>
            <path d="M58.8804762,5.98395238 L58.8804762,22.3672619 L69.920881,22.3672619 C76.4058095,22.3672619 79.6817143,19.6617381 79.6817143,14.1762381 C79.6817143,8.6907381 76.4058095,5.98395238 69.920881,5.98395238 L58.8804762,5.98395238 L58.8804762,5.98395238 Z M83.8131905,51.4327143 L68.2122619,26.7864524 L58.8804762,26.7864524 L58.8804762,51.4327143 L54.178619,51.4327143 L54.178619,1.56728571 L70.2073333,1.56728571 C79.2551905,1.56728571 84.4542381,5.84009524 84.4542381,14.1762381 C84.4542381,21.371619 80.466619,25.6444286 73.5564286,26.5719286 L89.0854286,51.4327143 L83.8131905,51.4327143 L83.8131905,51.4327143 Z" id="Fill-2" sketch:type="MSShapeGroup"></path>
            <path d="M99.1958095,1.56728571 L127.336286,1.56728571 L127.336286,5.98395238 L103.897667,5.98395238 L103.897667,22.6537143 L123.060952,22.6537143 L123.060952,27.070381 L103.897667,27.070381 L103.897667,47.0173095 L128.048,47.0173095 L128.048,51.4327143 L99.1958095,51.4327143 L99.1958095,1.56728571" id="Fill-3" sketch:type="MSShapeGroup"></path>
            <path d="M157.465524,7.97902381 L148.702857,32.8398095 L166.22819,32.8398095 L157.465524,7.97902381 L157.465524,7.97902381 Z M155.398524,1.56728571 L159.53,1.56728571 L177.553786,51.4327143 L172.708071,51.4327143 L167.722286,37.2564762 L147.204976,37.2564762 L142.217929,51.4327143 L137.374738,51.4327143 L155.398524,1.56728571 L155.398524,1.56728571 Z" id="Fill-4" sketch:type="MSShapeGroup"></path>
            <path d="M177.478071,5.98395238 L177.478071,1.56728571 L211.957095,1.56728571 L211.957095,5.98395238 L197.067881,5.98395238 L197.067881,51.4327143 L192.366024,51.4327143 L192.366024,5.98395238 L177.478071,5.98395238" id="Fill-5" sketch:type="MSShapeGroup"></path>
            <path d="M222.92431,1.56728571 L227.626167,1.56728571 L227.626167,51.4327143 L222.92431,51.4327143 L222.92431,1.56728571 Z" id="Fill-6" sketch:type="MSShapeGroup"></path>
            <path d="M272.931071,1.56728571 L277.774262,1.56728571 L260.323381,51.4327143 L255.33381,51.4327143 L237.881667,1.56728571 L242.726119,1.56728571 L257.828595,44.7370476 L272.931071,1.56728571" id="Fill-7" sketch:type="MSShapeGroup"></path>
            <path d="M288.0285,1.56728571 L316.166452,1.56728571 L316.166452,5.98395238 L292.730357,5.98395238 L292.730357,22.6537143 L311.892381,22.6537143 L311.892381,27.070381 L292.730357,27.070381 L292.730357,47.0173095 L316.876905,47.0173095 L316.876905,51.4327143 L288.0285,51.4327143 L288.0285,1.56728571" id="Fill-8" sketch:type="MSShapeGroup"></path>
            <path d="M359.543167,29.4919762 L359.543167,42.8845714 L368.020643,42.8845714 C373.361024,42.8845714 376.071595,40.6762381 376.071595,36.1876429 C376.071595,31.7003095 373.361024,29.4919762 368.020643,29.4919762 L359.543167,29.4919762 L359.543167,29.4919762 Z M359.543167,10.1154286 L359.543167,20.9438333 L368.020643,20.9438333 C371.940119,20.9438333 373.864524,19.4484762 373.864524,15.5302619 C373.864524,11.6107857 371.866929,10.1154286 367.806119,10.1154286 L359.543167,10.1154286 L359.543167,10.1154286 Z M350.284571,1.56728571 L368.519095,1.56728571 C377.283024,1.56728571 382.768524,6.19847619 382.768524,15.0305476 C382.768524,19.0913571 380.986714,22.5805238 377.853405,24.221 C382.837929,26.2867381 385.331452,30.3475476 385.331452,36.4021667 C385.331452,46.0191429 379.132976,51.4327143 368.874952,51.4327143 L350.284571,51.4327143 L350.284571,1.56728571 L350.284571,1.56728571 Z" id="Fill-9" sketch:type="MSShapeGroup"></path>
            <path d="M417.523905,9.54630952 C413.465619,9.54630952 410.116524,10.971 407.411,13.820381 C404.773619,16.6697619 403.420857,20.8719048 403.420857,26.5 C403.420857,32.1280952 404.773619,36.3302381 407.411,39.179619 C410.116524,42.0302619 413.465619,43.4549524 417.523905,43.4549524 C421.585976,43.4549524 424.93381,42.0302619 427.568667,39.179619 C430.276714,36.3302381 431.630738,32.1280952 431.630738,26.5 C431.630738,20.8719048 430.276714,16.6697619 427.568667,13.820381 C424.93381,10.971 421.585976,9.54630952 417.523905,9.54630952 L417.523905,9.54630952 Z M417.523905,0.996904762 C426.145238,0.996904762 433.340619,4.346 437.686619,12.2518333 C439.89369,16.1713095 441.035714,20.9438333 441.035714,26.5 C441.035714,37.6123333 436.119333,45.7352143 429.207881,49.3682381 C425.717452,51.1487857 421.869905,52.0030952 417.523905,52.0030952 C408.906357,52.0030952 401.782905,48.6552619 397.29431,40.7481667 C395.087238,36.8299524 394.015881,32.0561667 394.015881,26.5 C394.015881,15.3876667 398.933524,7.19538095 405.839929,3.70495238 C409.334143,1.92314286 413.182952,0.996904762 417.523905,0.996904762 L417.523905,0.996904762 Z" id="Fill-10" sketch:type="MSShapeGroup"></path>
            <path d="M474.008024,9.54630952 C469.949738,9.54630952 466.600643,10.971 463.893857,13.820381 C461.259,16.6697619 459.904976,20.8719048 459.904976,26.5 C459.904976,32.1280952 461.259,36.3302381 463.893857,39.179619 C466.600643,42.0302619 469.949738,43.4549524 474.008024,43.4549524 C478.070095,43.4549524 481.417929,42.0302619 484.056571,39.179619 C486.762095,36.3302381 488.117381,32.1280952 488.117381,26.5 C488.117381,20.8719048 486.762095,16.6697619 484.056571,13.820381 C481.417929,10.971 478.070095,9.54630952 474.008024,9.54630952 L474.008024,9.54630952 Z M474.008024,0.996904762 C482.629357,0.996904762 489.824738,4.346 494.169476,12.2518333 C496.379071,16.1713095 497.518571,20.9438333 497.518571,26.5 C497.518571,37.6123333 492.60219,45.7352143 485.692,49.3682381 C482.201571,51.1487857 478.355286,52.0030952 474.008024,52.0030952 C465.390476,52.0030952 458.265762,48.6552619 453.778429,40.7481667 C451.571357,36.8299524 450.503786,32.0561667 450.503786,26.5 C450.503786,15.3876667 455.416381,7.19538095 462.327833,3.70495238 C465.818262,1.92314286 469.66581,0.996904762 474.008024,0.996904762 L474.008024,0.996904762 Z" id="Fill-11" sketch:type="MSShapeGroup"></path>
            <path d="M509.125571,51.4327143 L509.125571,1.56728571 L519.52619,1.56728571 L531.282095,32.6984762 L543.032952,1.56728571 L553.433571,1.56728571 L553.433571,51.4327143 L544.172452,51.4327143 L544.172452,20.6586429 L534.629929,46.8747143 L527.931738,46.8747143 L518.38669,20.6586429 L518.38669,51.4327143 L509.125571,51.4327143" id="Fill-12" sketch:type="MSShapeGroup"></path>
        </g>
    </g>
</svg>
